<svg width="44" height="36" viewBox="0 0 44 36" fill="none" xmlns="http://www.w3.org/2000/svg">
<path d="M41.7023 10.9983H37.5742L36.4155 2.25575C36.2496 1.08195 35.1717 0.258974 33.9957 0.408379L2.70648 4.55511C2.13944 4.63116 1.62595 4.92979 1.27952 5.38517C0.931565 5.83751 0.77965 6.41047 0.85767 6.97571L3.4978 26.8865C3.63806 27.9588 4.55215 28.7605 5.63359 28.7597C5.72622 28.7595 5.81868 28.7532 5.91051 28.741L7.98316 28.4677V33.2386C7.98316 34.4273 8.94676 35.3909 10.1354 35.3909H41.7023C42.8909 35.3909 43.8545 34.4273 43.8545 33.2386V13.1506C43.8545 11.9619 42.8909 10.9983 41.7023 10.9983ZM36.1271 10.9983H30.5247L36.0303 10.2687L36.1271 10.9983ZM2.27818 6.78201C2.25298 6.59476 2.30409 6.40518 2.42023 6.25613C2.53564 6.10269 2.70774 6.00189 2.89803 5.97634L34.1815 1.83104C34.5749 1.78118 34.9358 2.05559 34.9929 2.44803L35.2763 4.58452L2.56156 8.92281L2.27818 6.78201ZM7.98316 27.0206L5.72613 27.3184C5.33334 27.3706 4.97266 27.0944 4.92046 26.7017C4.92046 26.7016 4.92046 26.7015 4.92046 26.7014L3.31988 14.607L7.98316 13.9907V27.0206ZM8.07786 12.5315L3.12761 13.1843L2.75096 10.3462L35.4657 6.00718L35.6809 7.65153L35.8402 8.84605L19.6055 10.9983H10.1354C9.18665 11 8.35084 11.6228 8.07786 12.5315ZM42.4197 33.2386C42.4197 33.6348 42.0985 33.956 41.7023 33.956H10.1354C9.73925 33.956 9.41802 33.6348 9.41802 33.2386V13.1721C9.41802 13.165 9.4216 13.1578 9.4216 13.1506C9.4216 12.7544 9.74283 12.4332 10.139 12.4332H41.7023C42.0985 12.4332 42.4197 12.7544 42.4197 13.1506V33.2386Z" fill="#FFBF1B"/>
<path d="M32.337 21.7764C32.6254 21.5635 32.8803 21.3086 33.0932 21.0202C34.2727 22.608 36.5161 22.9389 38.1039 21.7593C39.6916 20.5797 40.0225 18.3363 38.8429 16.7486C38.1661 15.8376 37.0977 15.3013 35.9629 15.3029C34.8293 15.3061 33.7646 15.8468 33.0932 16.76C31.9168 15.166 29.6709 14.8275 28.0768 16.0039C26.4828 17.1803 26.1442 19.4261 27.3206 21.0202C28.497 22.6142 30.743 22.9528 32.337 21.7764ZM35.9629 16.7378C37.1516 16.7378 38.1151 17.7014 38.1151 18.8901C38.1151 20.0788 37.1516 21.0424 35.9629 21.0424C34.7742 21.0424 33.8106 20.0788 33.8106 18.8901C33.8106 17.7014 34.7742 16.7378 35.9629 16.7378ZM30.2234 16.7378C31.4121 16.7378 32.3757 17.7014 32.3757 18.8901C32.3757 20.0788 31.4121 21.0424 30.2234 21.0424C29.0348 21.0424 28.0712 20.0788 28.0712 18.8901C28.0712 17.7014 29.0348 16.7378 30.2234 16.7378Z" fill="#FFBF1B"/>
<path d="M13.7226 16.0203H12.2877V17.4551H13.7226V16.0203Z" fill="#FFBF1B"/>
<path d="M23.7666 16.0203H15.1575V17.4551H23.7666V16.0203Z" fill="#FFBF1B"/>
<path d="M23.7666 18.8901H12.2877V20.325H23.7666V18.8901Z" fill="#FFBF1B"/>
<path d="M38.8325 25.3469H13.0051C12.6089 25.3469 12.2877 25.6682 12.2877 26.0644V30.3689C12.2877 30.7651 12.6089 31.0863 13.0051 31.0863H38.8325C39.2287 31.0863 39.55 30.7651 39.55 30.3689V26.0644C39.55 25.6682 39.2288 25.3469 38.8325 25.3469ZM38.1151 29.6515H13.7226V26.7818H38.1151V29.6515Z" fill="#FFBF1B"/>
</svg>
