<svg width="56" height="41" viewBox="0 0 56 41" fill="none" xmlns="http://www.w3.org/2000/svg">
<path d="M45.1547 13.6795H41.7097L42.7477 1.76181C42.7496 1.74022 42.7499 1.71895 42.75 1.69768C42.75 1.69586 42.7502 1.69415 42.7502 1.69234C42.7502 1.69202 42.7502 1.6918 42.7502 1.69148C42.7502 1.36711 42.5545 1.08122 42.2669 0.956919C42.2645 0.955851 42.2621 0.954568 42.2597 0.9535C42.2418 0.946018 42.2233 0.939605 42.2047 0.933406C42.1978 0.931162 42.1912 0.928383 42.1842 0.926245C42.169 0.92165 42.1534 0.918016 42.1379 0.914275C42.127 0.91171 42.1166 0.908611 42.1055 0.906474C42.092 0.903802 42.0779 0.902092 42.064 0.900061C42.0509 0.898137 42.0381 0.895893 42.025 0.894717C42.0227 0.894503 42.0207 0.894075 42.0184 0.893862C42.0043 0.892579 41.9904 0.892793 41.9764 0.892259C41.967 0.891938 41.9578 0.890869 41.9484 0.890869H41.9384C41.9375 0.890869 41.9367 0.890869 41.9359 0.890869H25.5441C25.1017 0.890869 24.7426 1.24997 24.7426 1.69244C24.7426 2.13385 25.1017 2.49402 25.5441 2.49402H41.0747L39.4795 20.81C39.4793 20.8114 39.4793 20.8128 39.479 20.8142L39.0766 25.4356H11.2235L11.6894 20.6264H16.9927C17.4355 20.6264 17.7943 20.2675 17.7943 19.8248C17.7943 19.3821 17.4355 19.0233 16.9927 19.0233H11.8448L12.8285 8.8705H21.2691C21.7119 8.8705 22.0707 8.51161 22.0707 8.06892C22.0707 7.62624 21.7119 7.26735 21.2691 7.26735H12.9839L13.4464 2.49402H22.3378C22.7792 2.49402 23.1394 2.13385 23.1394 1.69244C23.1394 1.24997 22.7792 0.890869 22.3378 0.890869H12.7189C12.7185 0.890869 12.7182 0.890976 12.7178 0.890976C12.3412 0.890869 12.0146 1.15592 11.9356 1.52337C11.9351 1.52604 11.9341 1.5286 11.9336 1.53127C11.9295 1.55126 11.9269 1.57167 11.9242 1.59219C11.9235 1.59871 11.9221 1.60491 11.9214 1.61143C11.9213 1.61271 11.921 1.61389 11.9209 1.61517L11.3733 7.26735H1.65613C1.21334 7.26735 0.854553 7.62624 0.854553 8.06892C0.854553 8.51161 1.21334 8.8705 1.65613 8.8705H11.2179L10.2342 19.0233H7.37425C6.93146 19.0233 6.57267 19.3821 6.57267 19.8248C6.57267 20.2675 6.93146 20.6264 7.37425 20.6264H10.0789L9.5432 26.1542C9.5431 26.155 9.5431 26.1559 9.54299 26.1566L8.7148 34.7045C8.71469 34.7055 8.71459 34.7066 8.71448 34.7074L8.71416 34.7105C8.71309 34.7216 8.7132 34.7325 8.71256 34.7436C8.71181 34.7584 8.71031 34.7728 8.71031 34.7878C8.71031 34.7884 8.71042 34.7891 8.71042 34.7898C8.71042 34.8104 8.71192 34.8307 8.71341 34.8511C8.71405 34.8576 8.71384 34.8642 8.71459 34.8706C8.71672 34.8913 8.72025 34.9118 8.72399 34.9321C8.72506 34.938 8.7256 34.9441 8.72677 34.95C8.72987 34.9654 8.73425 34.9803 8.73831 34.9953C8.74109 35.0059 8.74334 35.0167 8.74654 35.0271C8.74751 35.03 8.74879 35.0327 8.74964 35.0357C8.78844 35.155 8.85428 35.2621 8.9402 35.3495C8.94181 35.3511 8.94309 35.3529 8.94469 35.3544C8.95324 35.363 8.96254 35.3707 8.97152 35.3788C9.02677 35.4295 9.08919 35.4724 9.15748 35.5061C9.1717 35.5132 9.1857 35.5205 9.20024 35.5266C9.20462 35.5285 9.20932 35.5298 9.21381 35.5315C9.2339 35.5396 9.2541 35.5472 9.27494 35.5538C9.27687 35.5543 9.27868 35.5546 9.28061 35.5553C9.30433 35.5623 9.32827 35.5685 9.35275 35.5735C9.35596 35.5742 9.35927 35.5744 9.36237 35.575C9.38567 35.5794 9.40907 35.5832 9.43291 35.5855C9.43344 35.5855 9.43387 35.5856 9.4344 35.5857C9.46069 35.5883 9.48677 35.5896 9.51264 35.5896C9.51296 35.5896 9.51338 35.5895 9.51381 35.5895H13.0822C13.4763 38.577 16.0376 40.8909 19.1311 40.8909C22.2244 40.8909 24.7857 38.577 25.1798 35.5895H38.037C38.4311 38.577 40.9923 40.8909 44.0858 40.8909C47.1791 40.8909 49.7406 38.577 50.1348 35.5895H53.704C53.7046 35.5895 53.7052 35.5896 53.7057 35.5896C53.7325 35.5896 53.7587 35.588 53.7848 35.5854C53.7895 35.585 53.794 35.584 53.7987 35.5835C53.8196 35.581 53.8403 35.5781 53.8606 35.5741C53.8694 35.5724 53.8778 35.57 53.8865 35.568C53.9022 35.5643 53.918 35.5605 53.9334 35.5559C53.9439 35.5528 53.954 35.5492 53.9643 35.5456C53.9774 35.5412 53.9906 35.5365 54.0035 35.5312C54.0146 35.5268 54.0252 35.522 54.036 35.5172C54.0477 35.5118 54.0595 35.5062 54.0709 35.5003C54.0818 35.4948 54.0923 35.489 54.1028 35.483C54.1138 35.4766 54.1247 35.47 54.1355 35.4631C54.1455 35.4567 54.1556 35.4502 54.1652 35.4434C54.1761 35.4358 54.1865 35.4278 54.197 35.4196C54.2058 35.4127 54.2147 35.4058 54.2232 35.3986C54.2342 35.3893 54.2446 35.3796 54.2551 35.3696C54.2623 35.3627 54.2699 35.3558 54.277 35.3486C54.2881 35.3372 54.2987 35.3253 54.3093 35.3132C54.3149 35.3067 54.3208 35.3004 54.3263 35.2937C54.338 35.2792 54.3487 35.2642 54.3594 35.2492C54.363 35.2439 54.3671 35.239 54.3706 35.2337C54.3836 35.2141 54.3959 35.194 54.4073 35.1733C54.4081 35.172 54.409 35.1708 54.4095 35.1694C54.4216 35.1472 54.4327 35.1244 54.4426 35.1009C54.4454 35.0942 54.4476 35.0872 54.4502 35.0805C54.4568 35.064 54.4632 35.0474 54.4686 35.0302C54.4721 35.0191 54.4747 35.0076 54.4778 34.9964C54.4813 34.983 54.4851 34.9698 54.4881 34.9562C54.4907 34.9441 54.4924 34.9317 54.4945 34.9195C54.4963 34.9087 54.4986 34.8981 54.5 34.8871C54.534 34.6147 55.1617 29.5788 55.4421 26.3225C55.4424 26.3194 55.4425 26.3162 55.4428 26.3131C55.5235 25.3744 55.5752 24.5839 55.5752 24.1C55.5752 18.3542 50.9006 13.6795 45.1547 13.6795ZM41.57 15.2829H44.8493L44.4304 20.0919H41.1511L41.57 15.2829ZM19.1313 39.2876C16.65 39.2876 14.6313 37.2689 14.6313 34.7877C14.6313 32.3064 16.6501 30.2877 19.1313 30.2877C21.6126 30.2877 23.6313 32.3064 23.6313 34.7877C23.6313 37.2689 21.6126 39.2876 19.1313 39.2876ZM44.0858 39.2876C41.6045 39.2876 39.5859 37.2689 39.5859 34.7877C39.5859 32.3064 41.6046 30.2877 44.0858 30.2877C46.5671 30.2877 48.5858 32.3064 48.5858 34.7877C48.5858 37.2689 46.5671 39.2876 44.0858 39.2876ZM52.9958 33.9858H50.135C49.741 30.998 47.1796 28.684 44.086 28.684C40.9925 28.684 38.4311 30.9981 38.0372 33.9858H25.1801C24.7862 30.998 22.2249 28.684 19.1313 28.684C16.0378 28.684 13.4763 30.9981 13.0823 33.9858H10.395L11.0682 27.0384H39.8111V27.0388C39.8115 27.0388 39.8119 27.0388 39.8123 27.0388C39.8391 27.0388 39.8657 27.0373 39.892 27.0346C39.8969 27.0342 39.9017 27.0331 39.9067 27.0325C39.9276 27.03 39.9485 27.027 39.969 27.023C39.9778 27.0212 39.9865 27.0187 39.9953 27.0166C40.0113 27.0127 40.0273 27.009 40.0429 27.0043C40.0536 27.0011 40.0638 26.9972 40.0741 26.9936C40.0876 26.9889 40.1011 26.9843 40.1141 26.9789C40.1253 26.9743 40.1361 26.9692 40.147 26.9641C40.1589 26.9586 40.1708 26.9532 40.1822 26.9472C40.1931 26.9414 40.2038 26.9352 40.2146 26.929C40.2256 26.9226 40.2365 26.9161 40.2472 26.9093C40.2575 26.9025 40.2674 26.8955 40.2773 26.8884C40.2879 26.8809 40.2982 26.8732 40.3084 26.8652C40.3176 26.8579 40.3267 26.8503 40.3357 26.8425C40.3458 26.8337 40.3558 26.8247 40.3654 26.8154C40.3735 26.8076 40.3816 26.7996 40.3895 26.7914C40.3992 26.7813 40.4084 26.771 40.4176 26.7604C40.4248 26.752 40.4319 26.7437 40.4387 26.7352C40.4476 26.7239 40.456 26.7124 40.4643 26.7007C40.4707 26.692 40.4767 26.6832 40.4827 26.6742C40.4905 26.6622 40.498 26.6498 40.5052 26.6371C40.5106 26.6277 40.5162 26.6183 40.5211 26.6087C40.5278 26.5961 40.5336 26.5833 40.5397 26.5704C40.5444 26.56 40.5492 26.5498 40.5535 26.5391C40.5587 26.5265 40.5631 26.5136 40.5677 26.5007C40.5717 26.4892 40.5758 26.4778 40.5793 26.466C40.5829 26.4536 40.5858 26.4409 40.589 26.4283C40.5921 26.4156 40.5955 26.403 40.5979 26.39C40.6004 26.3774 40.6019 26.3646 40.6038 26.3518C40.6057 26.3385 40.608 26.3255 40.6093 26.312C40.6095 26.3101 40.6099 26.3083 40.61 26.3064L41.0118 21.6946H45.1545C47.6104 21.6946 48.7181 22.9671 49.8907 24.3144C50.8582 25.426 51.9384 26.6663 53.7746 26.9689C53.5414 29.4345 53.1644 32.5998 52.9958 33.9858ZM53.9116 25.3625C52.7204 25.1197 51.9876 24.2823 51.0998 23.2623C49.9894 21.9867 48.6339 20.4301 46.0354 20.14L46.4501 15.3789C50.6999 16.0074 53.9721 19.6784 53.9721 24.1002C53.9721 24.4006 53.9496 24.8371 53.9116 25.3625Z" fill="#FFBF1B"/>
<path d="M19.1313 31.8484C17.5107 31.8484 16.1922 33.1668 16.1922 34.7875C16.1922 36.4082 17.5107 37.7266 19.1313 37.7266C20.7519 37.7266 22.0704 36.4082 22.0704 34.7875C22.0704 33.1669 20.7519 31.8484 19.1313 31.8484ZM19.1313 36.1235C18.3946 36.1235 17.7954 35.5242 17.7954 34.7875C17.7954 34.0508 18.3946 33.4515 19.1313 33.4515C19.868 33.4515 20.4673 34.0508 20.4673 34.7875C20.4673 35.5242 19.8679 36.1235 19.1313 36.1235Z" fill="#FFBF1B"/>
<path d="M44.0858 31.8484C42.4652 31.8484 41.1467 33.1668 41.1467 34.7875C41.1467 36.4082 42.4652 37.7266 44.0858 37.7266C45.7063 37.7266 47.0249 36.4082 47.0249 34.7875C47.0249 33.1669 45.7063 31.8484 44.0858 31.8484ZM44.0858 36.1235C43.3491 36.1235 42.7498 35.5242 42.7498 34.7875C42.7498 34.0508 43.3491 33.4515 44.0858 33.4515C44.8225 33.4515 45.4217 34.0508 45.4217 34.7875C45.4217 35.5242 44.8225 36.1235 44.0858 36.1235Z" fill="#FFBF1B"/>
<path d="M8.44279 13.6797H4.52405C4.08126 13.6797 3.72247 14.0386 3.72247 14.4813C3.72247 14.9239 4.08126 15.2828 4.52405 15.2828H8.44279C8.88558 15.2828 9.24437 14.9239 9.24437 14.4813C9.24437 14.0386 8.88558 13.6797 8.44279 13.6797Z" fill="#FFBF1B"/>
</svg>
