<svg width="42" height="46" viewBox="0 0 42 46" fill="none" xmlns="http://www.w3.org/2000/svg">
<path d="M41.1362 12.4907C41.5236 12.4907 41.8377 12.1904 41.8377 11.82V6.27078C41.8377 5.90811 41.5361 5.61124 41.157 5.60042C41.1245 5.59953 37.8615 5.49983 33.7837 4.77107C27.0152 3.56125 23.2864 1.58593 21.3504 0.141839C21.0967 -0.0472795 20.741 -0.0472795 20.4874 0.141839C16.9846 2.75444 11.8046 4.09919 8.07583 4.76723C3.99503 5.49831 0.713131 5.59962 0.680491 5.60051C0.301432 5.61142 0 5.90828 0 6.27087V23.9129C0 28.0285 1.27391 32.006 3.68406 35.4157C6.0943 38.8256 9.47955 41.4389 13.4736 42.9731L20.6572 45.7334C20.8251 45.7979 21.0125 45.7979 21.1804 45.7334L28.364 42.9731C32.3581 41.4388 35.7433 38.8255 38.1536 35.4156C40.5637 32.006 41.8377 28.0284 41.8377 23.9129V14.9496C41.8377 14.5793 41.5236 14.279 41.1362 14.279C40.7488 14.279 40.4348 14.5793 40.4348 14.9496V23.9129C40.4348 27.7597 39.244 31.4776 36.9913 34.6645C34.7383 37.8517 31.5743 40.2943 27.8409 41.7285L20.9188 44.3883L13.9966 41.7284C10.2634 40.2943 7.09933 37.8517 4.84639 34.6645C2.59365 31.4776 1.40288 27.7597 1.40288 23.9129V6.91012C2.58822 6.84395 5.19618 6.64634 8.31179 6.08944C13.7028 5.12588 17.9402 3.58638 20.9188 1.51037C23.8974 3.58638 28.1349 5.12588 33.5259 6.08944C36.6415 6.64634 39.2494 6.84395 40.4348 6.91012V11.82C40.4348 12.1904 40.7488 12.4907 41.1362 12.4907Z" fill="#FFBF1B"/>
<path d="M16.7768 37.0136C16.987 37.135 17.2482 37.1425 17.4657 37.0334L20.9188 35.3002L24.3717 37.0334C24.589 37.1425 24.8503 37.1351 25.0607 37.0136C25.2708 36.8921 25.3992 36.6745 25.3992 36.4397V29.8384C29.0229 28.2197 31.5401 24.7022 31.5401 20.6327C31.5401 15.0332 26.7754 10.4778 20.9187 10.4778C15.062 10.4778 10.2973 15.0332 10.2973 20.6327C10.2973 24.7022 12.8145 28.2197 16.4382 29.8384V36.4397C16.4383 36.6744 16.5667 36.8921 16.7768 37.0136ZM23.9964 35.3301L21.2449 33.949C21.0407 33.8465 20.7969 33.8465 20.5928 33.949L17.8412 35.3301V30.3522C18.8159 30.6348 19.849 30.7874 20.9189 30.7874C21.9888 30.7874 23.0219 30.6348 23.9965 30.3522V35.3301H23.9964ZM11.7003 20.6326C11.7003 15.7727 15.8357 11.819 20.9188 11.819C26.0019 11.819 30.1373 15.7727 30.1373 20.6326C30.1373 25.4924 26.0019 29.4462 20.9188 29.4462C15.8357 29.4462 11.7003 25.4924 11.7003 20.6326Z" fill="#FFBF1B"/>
<path d="M24.8756 26.836C25.2063 26.643 25.3107 26.2304 25.1089 25.9142C24.9071 25.5981 24.4755 25.4981 24.1448 25.6911C23.1752 26.2569 22.0597 26.5559 20.9188 26.5559C17.5028 26.5559 14.7237 23.8989 14.7237 20.6329C14.7237 17.3665 17.5028 14.709 20.9188 14.709C24.3348 14.709 27.1139 17.3665 27.1139 20.6329C27.1139 21.7239 26.8012 22.79 26.2096 23.716C26.0076 24.0321 26.1119 24.4449 26.4425 24.6379C26.7732 24.8311 27.2048 24.7312 27.4068 24.4152C28.133 23.2785 28.5169 21.9706 28.5169 20.6328C28.5169 16.6269 25.1085 13.3677 20.9189 13.3677C16.7294 13.3677 13.3209 16.6269 13.3209 20.6328C13.3209 24.6384 16.7294 27.8971 20.9189 27.8971C22.3176 27.8972 23.6859 27.5302 24.8756 26.836Z" fill="#FFBF1B"/>
<path d="M20.9188 17.6001C21.7647 17.6001 22.561 17.9159 23.1607 18.4893C23.4347 18.7512 23.8788 18.7512 24.1527 18.4893C24.4266 18.2274 24.4266 17.8028 24.1527 17.5409C23.2878 16.7141 22.1394 16.2588 20.9187 16.2588C18.3961 16.2588 16.3438 18.221 16.3438 20.6328C16.3438 23.0447 18.3961 25.0069 20.9187 25.0069C22.1393 25.0069 23.2878 24.5516 24.1527 23.7247C24.4266 23.4628 24.4266 23.0382 24.1527 22.7764C23.8787 22.5144 23.4346 22.5144 23.1607 22.7764C22.5609 23.3498 21.7647 23.6656 20.9188 23.6656C19.1697 23.6656 17.7467 22.3051 17.7467 20.6328C17.7467 18.9605 19.1697 17.6001 20.9188 17.6001Z" fill="#FFBF1B"/>
<path d="M3.72415 22.4669C3.33676 22.4669 3.02271 22.7671 3.02271 23.1375V23.9127C3.02271 27.4497 4.1177 30.8675 6.1891 33.7969C8.25994 36.7266 11.1689 38.9723 14.6015 40.2913L20.6573 42.6179C20.8251 42.6824 21.0126 42.6824 21.1804 42.6179L27.2362 40.2913C30.6688 38.9723 33.5777 36.7266 35.6484 33.797C37.7199 30.8675 38.8149 27.4497 38.8149 23.9127V8.95678C38.8149 8.61235 38.542 8.32389 38.1836 8.28955C36.508 8.12869 34.8409 7.90094 33.2286 7.61266C28.3543 6.74111 24.3359 5.39296 21.2854 3.60569C21.0605 3.47389 20.7773 3.47389 20.5524 3.60569C17.5018 5.39296 13.4835 6.74111 8.60917 7.61266C6.99679 7.90094 5.3297 8.12869 3.65419 8.28955C3.29571 8.32398 3.02289 8.61235 3.02289 8.95678V20.0079C3.02289 20.3783 3.33695 20.6785 3.72433 20.6785C4.11171 20.6785 4.42577 20.3783 4.42577 20.0079V9.56035C5.9277 9.40128 7.41877 9.19008 8.8672 8.93103C13.7196 8.06342 17.7714 6.72788 20.9188 4.95956C24.0662 6.72788 28.118 8.06342 32.9706 8.93103C34.419 9.18999 35.9101 9.40119 37.412 9.56035V23.9127C37.412 27.1809 36.4002 30.339 34.4861 33.0459C32.5727 35.7531 29.8848 37.8281 26.713 39.0467L20.9188 41.2729L15.1246 39.0467C11.9528 37.8281 9.26487 35.753 7.35144 33.0458C5.43734 30.339 4.42559 27.1809 4.42559 23.9127V23.1375C4.42559 22.7671 4.11153 22.4669 3.72415 22.4669Z" fill="#FFBF1B"/>
</svg>
