<svg width="22" height="16" viewBox="0 0 22 16" fill="none" xmlns="http://www.w3.org/2000/svg">
<path d="M20.3897 0H0.615385C0.283897 0 0 0.271097 0 0.615385V15.3846C0 15.7162 0.270728 16 0.615877 16H20.3893C20.7363 16 21.0052 15.7153 21.0052 15.3846V0.615385C21.0051 0.276595 20.7264 0 20.3897 0ZM8.65641 5.84829L2.46892 1.23077H8.65641V5.84829ZM7.008 6.15385H1.23077V1.84246L7.008 6.15385ZM1.23077 9.84615H7.008L1.23077 14.1575V9.84615ZM8.65641 10.1517V14.7692H2.46892L8.65641 10.1517ZM9.2718 8.61539H1.23077V7.38462H9.2718C9.61165 7.38462 9.88718 7.10909 9.88718 6.76923V1.23077H11.1179V6.76923C11.1179 7.10909 11.3935 7.38462 11.7333 7.38462H19.7744V8.61539H11.7333C11.3935 8.61539 11.1179 8.89091 11.1179 9.23077V14.7692H9.88718V9.23077C9.88718 8.89091 9.61165 8.61539 9.2718 8.61539ZM12.3487 5.84829V1.23077H18.5362L12.3487 5.84829ZM19.7744 1.84246V6.15385H13.9971L19.7744 1.84246ZM12.3487 10.1517L18.5362 14.7692H12.3487V10.1517ZM13.9971 9.84615H19.7744V14.1575L13.9971 9.84615Z" fill="#656565"/>
</svg>
