<svg width="30" height="30" viewBox="0 0 30 30" fill="none" xmlns="http://www.w3.org/2000/svg">
<path d="M29.2395 27.6372L22.1273 20.5251C23.8951 18.3992 24.9602 15.6693 24.9602 12.6948C24.9602 5.93117 19.4578 0.428589 12.6945 0.428589C5.93102 0.428589 0.428589 5.93117 0.428589 12.6948C0.428589 19.4579 5.93102 24.9601 12.6945 24.9601C15.6688 24.9601 18.3989 23.8951 20.5248 22.1273L27.6372 29.2395C27.8584 29.4609 28.1485 29.5714 28.4384 29.5714C28.7283 29.5714 29.0184 29.4609 29.2397 29.2395C29.6822 28.797 29.6822 28.0797 29.2395 27.6372ZM2.6947 12.6948C2.6947 7.18071 7.18056 2.6947 12.6945 2.6947C18.2082 2.6947 22.6939 7.18071 22.6939 12.6948C22.6939 18.2084 18.2082 22.6939 12.6945 22.6939C7.18056 22.6939 2.6947 18.2084 2.6947 12.6948Z" fill="#fff"/>
</svg>
