<svg width="22" height="16" viewBox="0 0 22 16" fill="none" xmlns="http://www.w3.org/2000/svg">
<path d="M20.5104 1.79668V14.2033C20.5104 14.984 19.9698 15.4999 19.4379 15.5C19.4379 15.5 19.4379 15.5 19.4379 15.5H1.57768C1.04584 15.5 0.505188 14.9841 0.505188 14.2033V1.79668C0.505188 1.01581 1.04583 0.5 1.57768 0.5H19.4379C19.9697 0.5 20.5104 1.01585 20.5104 1.79668Z" stroke="#656565"/>
<path d="M11.2511 6.94997L11.3675 7.25365L11.6923 7.27043L14.0844 7.39399L12.2218 8.89957L11.9688 9.10407L12.0533 9.41821L12.675 11.731L10.6668 10.4251L10.3943 10.2479L10.1217 10.4251L8.11355 11.731L8.73524 9.41821L8.81969 9.10407L8.56671 8.89957L6.70417 7.39399L9.09628 7.27043L9.42105 7.25365L9.5374 6.94997L10.3943 4.71343L11.2511 6.94997ZM14.326 7.19868C14.326 7.19863 14.3261 7.19858 14.3262 7.19853L14.3261 7.19858L14.326 7.19868ZM6.39377 7.41002L6.39386 7.41002L6.39377 7.41002ZM10.5053 4.42351C10.5053 4.42359 10.5053 4.42368 10.5052 4.42376L10.5053 4.42356L10.5053 4.42351ZM10.2833 4.42377C10.2833 4.42368 10.2832 4.4236 10.2832 4.42351L10.2832 4.42356L10.2833 4.42377Z" fill="#656565" stroke="#656565"/>
</svg>
